<svg xmlns="http://www.w3.org/2000/svg" width="23.956" height="21" viewBox="0 0 23.956 21">
  <defs>
    <style>
      .cls-1 {
        fill: #2b2e4a;
      }
    </style>
  </defs>
  <path id="Icon_map-food" data-name="Icon map-food" class="cls-1" d="M24.623,8.43,22.659,23.825H16.026L14.07,8.353h8.1l1.6-5.528.907.273L23.14,8.418l1.483.011ZM13.132,17.336s.248-2-3.192-2H4.463c-3.435,0-3.192,2-3.192,2H13.132ZM1.271,21.828s-.243,2,3.192,2H9.941c3.44,0,3.192-2,3.192-2Zm11.347-1a1.148,1.148,0,0,0,1.018-1.247,1.146,1.146,0,0,0-1.018-1.248H1.738A1.148,1.148,0,0,0,.72,19.583,1.15,1.15,0,0,0,1.738,20.83h10.88Z" transform="translate(-0.72 -2.825)"/>
</svg>
