<svg xmlns="http://www.w3.org/2000/svg" width="21.454" height="21" viewBox="0 0 21.454 21">
  <defs>
    <style>
      .cls-1 {
        fill: #2b2e4a;
      }
    </style>
  </defs>
  <path id="Icon_metro-tools" data-name="Icon metro-tools" class="cls-1" d="M26.248,9.091a5.341,5.341,0,0,1-7.571,6.7L17.2,17.405l1.054,1.058.63-.63a.823.823,0,0,1,1.166,0l5.109,5.161a.823.823,0,0,1,0,1.166l-2.332,2.332a.823.823,0,0,1-1.166,0l-5.109-5.161a.823.823,0,0,1,0-1.166l.575-.575-1-1.007L9.057,26.3a1.648,1.648,0,0,1-2.332,0l-.583-.583a1.648,1.648,0,0,1,0-2.332l8.049-6.741-5.346-5.36H7.156L5.2,8.143,6.775,6.568,9.988,8.534l.021,1.653,5.408,5.429L16.99,14.3a5.347,5.347,0,0,1,6.335-8.118L19.861,9.6l2.916,2.916,3.471-3.423ZM8.075,24.209a.825.825,0,1,0,0,1.167A.825.825,0,0,0,8.075,24.209Z" transform="translate(-5.202 -5.785)"/>
</svg>
